<svg viewBox="0 0 49 93" fill="none" xmlns="http://www.w3.org/2000/svg">
<path d="M38.9415 88.207C38.755 88.7269 38.1824 88.9971 37.6625 88.8106C37.1427 88.624 36.8725 88.0514 37.059 87.5316L38.9415 88.207ZM1.17814 10.5695C0.863778 10.1154 0.977034 9.49242 1.43112 9.17805L8.83081 4.0551C9.28489 3.74073 9.90784 3.854 10.2222 4.30808C10.5366 4.76216 10.4233 5.38511 9.96924 5.69948L3.39174 10.2532L7.94546 16.8307C8.25983 17.2848 8.14657 17.9077 7.69249 18.2221C7.23841 18.5365 6.61546 18.4232 6.30109 17.9691L1.17814 10.5695ZM37.059 87.5316C42.0093 73.7355 43.962 56.5012 39.297 41.7858C34.658 27.1522 23.4537 14.9171 1.82145 10.9841L2.17921 9.01636C24.5469 13.083 36.3426 25.8479 41.2035 41.1815C46.0386 56.4334 43.9912 74.1338 38.9415 88.207L37.059 87.5316Z" fill="CurrentColor"></path>
</svg>